<?xml version="1.0" standalone="no"?>
<!DOCTYPE svg PUBLIC "-//W3C//DTD SVG 20010904//EN"
 "http://www.w3.org/TR/2001/REC-SVG-20010904/DTD/svg10.dtd">
<svg version="1.0" 
 xmlns="http://www.w3.org/2000/svg"
 width="3750.000000pt" 
 height="680.000000pt" 
 viewBox="0 0 3750.000000 680.000000"
 preserveAspectRatio="xMidYMid meet"
 >
 <style>
        path {
            fill: #000000;
        }
        @media (prefers-color-scheme: dark) {
            path { fill: #ffffff }
        }
    </style>
<g transform="translate(0.000000,680.000000) scale(0.100000,-0.100000)"
stroke="none">
<path d="M23495 6339 c-474 -58 -827 -183 -1190 -424 -156 -103 -261 -190
-406 -334 -320 -320 -563 -715 -708 -1149 -314 -940 -179 -1982 361 -2784 139
-207 374 -465 558 -611 311 -248 692 -432 1063 -512 169 -36 418 -67 434 -53
24 20 13 43 -32 67 -87 46 -152 145 -192 291 -17 62 -18 197 -18 2575 0 2378
1 2513 18 2575 40 146 105 245 192 291 32 17 45 30 45 45 0 21 -19 35 -43 33
-7 -1 -43 -5 -82 -10z"/>
<path d="M24391 6336 c-21 -25 -7 -41 76 -86 185 -101 306 -216 372 -352 22
-46 45 -105 52 -132 11 -43 10 -50 -5 -58 -51 -29 -173 -139 -225 -204 -159
-197 -232 -403 -232 -649 0 -296 107 -547 320 -748 183 -172 409 -269 663
-284 424 -24 815 200 999 572 74 150 100 252 106 416 9 220 -29 411 -116 593
-120 248 -350 471 -652 630 -328 173 -777 286 -1235 311 -93 5 -112 4 -123 -9z"/>
<path d="M6575 4609 c-218 -31 -431 -150 -538 -301 -57 -81 -79 -126 -108
-218 l-24 -75 0 -600 c0 -670 -1 -655 72 -805 46 -95 166 -219 266 -275 148
-82 336 -120 547 -112 160 7 269 31 385 87 242 117 355 312 355 612 l0 128
-209 0 -209 0 -4 -112 c-3 -98 -7 -120 -30 -163 -34 -66 -80 -108 -153 -142
-54 -25 -71 -28 -170 -28 -175 0 -271 46 -332 161 -52 99 -55 131 -51 694 4
572 2 555 73 652 122 167 461 173 594 11 50 -60 71 -130 71 -233 l0 -90 211 0
211 0 -4 153 c-4 133 -7 161 -31 227 -100 281 -384 444 -765 439 -53 -1 -124
-5 -157 -10z"/>
<path d="M9055 4613 c-72 -8 -155 -26 -215 -45 -252 -80 -422 -257 -492 -513
-22 -78 -22 -94 -23 -640 0 -511 2 -567 19 -640 62 -271 240 -447 525 -522
134 -35 367 -43 508 -18 274 49 465 179 566 386 84 172 82 156 82 809 0 567 0
576 -23 653 -39 134 -84 212 -181 307 -97 97 -177 142 -322 184 -129 37 -321
54 -444 39z m302 -417 c68 -31 129 -89 162 -154 38 -75 42 -144 39 -657 -4
-449 -5 -494 -23 -540 -40 -108 -107 -179 -204 -216 -79 -31 -233 -31 -310 -1
-111 44 -175 111 -208 222 -15 49 -17 113 -15 575 2 317 7 536 13 560 25 95
101 181 195 221 53 22 70 24 174 21 101 -2 122 -6 177 -31z"/>
<path d="M28960 4609 c-145 -8 -258 -37 -380 -97 -78 -38 -110 -61 -181 -132
-96 -95 -144 -172 -181 -290 l-23 -75 0 -605 c0 -551 2 -611 18 -670 52 -188
176 -340 347 -424 242 -118 564 -137 823 -47 196 68 333 200 401 386 26 72 29
96 34 233 l4 152 -211 0 -211 0 0 -83 c0 -212 -95 -328 -294 -359 -144 -22
-275 18 -358 111 -84 93 -83 87 -83 711 0 625 -2 608 86 704 76 83 125 101
279 101 117 0 129 -2 188 -29 121 -56 173 -142 180 -303 l5 -103 208 0 209 0
0 123 c0 216 -55 362 -183 489 -153 151 -387 222 -677 207z"/>
<path d="M10860 3415 l0 -1165 233 2 232 3 3 487 2 488 383 2 382 3 3 188 2
187 -385 0 -385 0 0 295 0 295 485 0 485 0 0 190 0 190 -720 0 -720 0 0 -1165z"/>
<path d="M13180 4129 c0 -250 -3 -775 -7 -1166 l-6 -713 236 0 237 0 2 488 3
487 383 3 382 2 0 180 c0 99 0 183 0 188 0 4 -172 9 -382 12 l-383 5 0 290 0
290 488 3 487 2 0 185 0 185 -487 0 c-269 0 -593 3 -720 7 l-233 6 0 -454z"/>
<path d="M30707 4574 c-4 -4 -7 -529 -7 -1166 l0 -1158 720 2 721 3 0 190 0
190 -485 3 -486 2 -2 968 -3 967 -226 3 c-124 1 -228 -1 -232 -4z"/>
<path d="M32832 3678 l3 -903 23 -70 c103 -304 307 -450 684 -487 90 -9 144
-8 228 1 382 41 615 224 702 551 l23 85 0 860 0 860 -222 3 -222 2 -3 -852 -3
-853 -22 -55 c-60 -147 -159 -217 -323 -227 -188 -13 -332 77 -388 242 -15 45
-17 130 -20 898 l-3 847 -230 0 -230 0 3 -902z"/>
<path d="M35327 4574 c-4 -4 -7 -529 -7 -1166 l0 -1159 558 3 c488 4 564 6
617 21 221 63 369 216 421 432 22 93 23 261 1 342 -52 198 -181 327 -387 390
-8 2 11 15 43 28 210 85 337 287 337 535 0 170 -52 305 -157 409 -75 74 -142
110 -261 143 -73 21 -103 22 -617 26 -297 2 -544 0 -548 -4z m965 -383 c54
-26 113 -87 136 -140 10 -23 16 -67 16 -122 0 -77 -3 -93 -32 -152 -34 -69
-80 -114 -149 -144 -31 -14 -77 -18 -255 -21 l-218 -4 0 307 0 307 228 -4
c214 -3 230 -5 274 -27z m-77 -952 c173 -32 252 -136 243 -318 -7 -134 -56
-222 -153 -274 -37 -21 -56 -22 -277 -25 l-238 -3 0 315 0 316 183 0 c101 0
210 -5 242 -11z"/>
<path d="M15460 3410 l0 -1160 720 0 720 0 0 190 0 190 -447 2 c-247 1 -466 3
-488 3 l-40 1 -3 80 c-2 43 0 179 3 302 l7 222 384 0 384 0 0 189 0 189 -322
7 c-178 4 -351 6 -386 4 l-62 -4 0 283 0 282 485 0 485 0 0 190 0 190 -720 0
-720 0 0 -1160z"/>
<path d="M17727 4403 c-4 -91 -7 -613 -7 -1160 l0 -993 725 0 725 0 0 190 0
190 -487 2 -488 3 -3 303 -2 302 390 0 390 0 0 190 0 190 -387 2 -388 3 0 280
0 280 488 3 487 2 0 190 0 190 -718 0 -719 0 -6 -167z"/>
<path d="M560 4025 l0 -95 190 0 190 0 2 -602 3 -603 115 0 115 0 3 602 2 603
186 2 186 3 0 90 0 90 -496 3 -496 2 0 -95z"/>
<path d="M2070 3420 l0 -700 115 0 115 0 2 308 3 307 248 3 247 2 0 -310 0
-310 115 0 115 0 0 700 0 700 -115 0 -115 0 0 -285 0 -285 -250 0 -250 0 0
285 0 285 -115 0 -115 0 0 -700z"/>
<path d="M3630 3420 l0 -700 410 0 410 0 0 100 0 100 -295 0 -295 0 0 210 0
210 235 0 235 0 0 100 0 100 -235 0 -235 0 0 190 0 190 295 0 295 0 0 100 0
100 -410 0 -410 0 0 -700z"/>
<path d="M25283 2976 c-209 -40 -385 -131 -540 -279 -211 -202 -314 -447 -314
-742 1 -233 64 -425 198 -605 49 -66 156 -171 218 -216 30 -21 55 -44 55 -51
0 -23 -56 -170 -83 -216 -63 -107 -186 -212 -372 -319 -33 -19 -61 -41 -63
-50 -6 -33 30 -38 183 -28 507 34 986 175 1325 389 227 143 428 361 519 563
136 300 148 655 32 936 -118 286 -389 518 -698 598 -122 32 -346 42 -460 20z"/>
</g>
</svg>
